<svg width="84" height="76" viewBox="0 0 84 76" fill="none" xmlns="http://www.w3.org/2000/svg">
<path d="M69.9108 27.3478C69.5537 25.625 68.874 24.2358 68.3574 23.18C68.3023 23.0673 68.2489 22.9583 68.1981 22.8532C67.5098 21.43 66.195 19.5167 64.8983 18.1887C63.6015 16.8607 62.062 15.8073 60.3677 15.0886C58.6733 14.3699 56.8574 14 55.0234 14C53.1895 14 51.3736 14.3699 49.6792 15.0886C47.9849 15.8073 46.4454 16.8607 45.1486 18.1887C43.8518 19.5167 42.8735 20.8101 41.8488 22.717C41.1901 23.9428 40.5314 25.441 39.8726 27.3478C40.9149 27.8155 41.5647 28.1644 42.2051 28.5083C43.2401 29.0642 44.2508 29.607 46.8552 30.6167C51.0711 32.2511 54.76 32.5235 54.76 32.5235C54.76 32.5235 58.9758 32.3873 62.6647 31.1615C66.3536 29.9357 69.9108 27.3478 69.9108 27.3478Z" fill="#FFD790"/>
<path d="M36.9117 52.5092V44.9549H42.0163V46.3794H38.4874V51.0847H42.0919V52.5092H36.9117ZM37.6672 49.3472V47.9658H41.4983V49.3472H37.6672Z" fill="#15345E"/>
<path d="M28.6703 52.5092V44.9549H31.7676C32.3216 44.9549 32.8216 45.0484 33.2676 45.2355C33.7209 45.4154 34.1094 45.6744 34.4332 46.0125C34.7641 46.3435 35.0159 46.7392 35.1886 47.1996C35.3613 47.6601 35.4476 48.1709 35.4476 48.7321C35.4476 49.2861 35.3613 49.7969 35.1886 50.2645C35.0159 50.725 34.7677 51.1243 34.444 51.4624C34.1202 51.7934 33.7317 52.0524 33.2784 52.2394C32.8252 52.4193 32.3216 52.5092 31.7676 52.5092H28.6703ZM30.2891 51.3329L30.1164 51.0523H31.7136C32.0374 51.0523 32.3287 50.9984 32.5878 50.8904C32.8468 50.7753 33.0662 50.6207 33.2461 50.4264C33.4331 50.2249 33.5734 49.9803 33.6669 49.6925C33.7605 49.4048 33.8072 49.0846 33.8072 48.7321C33.8072 48.3795 33.7605 48.063 33.6669 47.7824C33.5734 47.4946 33.4331 47.25 33.2461 47.0485C33.0662 46.8471 32.8468 46.6924 32.5878 46.5845C32.3287 46.4694 32.0374 46.4118 31.7136 46.4118H30.084L30.2891 46.1528V51.3329Z" fill="#15345E"/>
<path d="M23.3631 52.6174C22.8091 52.6174 22.2983 52.5202 21.8306 52.326C21.363 52.1317 20.9529 51.8619 20.6004 51.5166C20.255 51.1641 19.9888 50.7504 19.8018 50.2755C19.6147 49.7935 19.5212 49.2719 19.5212 48.7107C19.5212 48.1423 19.6147 47.6243 19.8018 47.1567C19.9888 46.6818 20.255 46.2681 20.6004 45.9156C20.9529 45.563 21.363 45.2897 21.8306 45.0954C22.2983 44.9011 22.8091 44.804 23.3631 44.804C23.9243 44.804 24.4351 44.9011 24.8956 45.0954C25.3632 45.2897 25.7697 45.563 26.115 45.9156C26.4676 46.2681 26.7374 46.6818 26.9244 47.1567C27.1115 47.6315 27.205 48.1495 27.205 48.7107C27.205 49.2719 27.1115 49.7899 26.9244 50.2647C26.7374 50.7396 26.4676 51.1533 26.115 51.5058C25.7697 51.8583 25.3632 52.1317 24.8956 52.326C24.4351 52.5202 23.9243 52.6174 23.3631 52.6174ZM23.3631 51.0849C23.6797 51.0849 23.971 51.0274 24.2372 50.9122C24.5106 50.7971 24.7445 50.6316 24.9387 50.4158C25.133 50.2 25.2841 49.9482 25.392 49.6604C25.5071 49.3726 25.5647 49.056 25.5647 48.7107C25.5647 48.3653 25.5071 48.0488 25.392 47.761C25.2841 47.4732 25.133 47.225 24.9387 47.0164C24.7445 46.8005 24.5106 46.635 24.2372 46.5199C23.971 46.3976 23.6797 46.3365 23.3631 46.3365C23.0465 46.3365 22.7552 46.3976 22.489 46.5199C22.2228 46.635 21.9889 46.8005 21.7875 47.0164C21.586 47.225 21.4313 47.4732 21.3234 47.761C21.2227 48.0488 21.1723 48.3653 21.1723 48.7107C21.1723 49.056 21.2227 49.3726 21.3234 49.6604C21.4313 49.9482 21.586 50.2 21.7875 50.4158C21.9889 50.6316 22.2228 50.7971 22.489 50.9122C22.7552 51.0274 23.0465 51.0849 23.3631 51.0849Z" fill="#15345E"/>
<path d="M15.8904 52.6172C15.3364 52.6172 14.8256 52.5237 14.358 52.3366C13.8975 52.1424 13.4946 51.8726 13.1493 51.5272C12.8111 51.1747 12.5485 50.761 12.3615 50.2862C12.1744 49.8041 12.0809 49.2789 12.0809 48.7105C12.0809 48.1566 12.178 47.6457 12.3723 47.1781C12.5665 46.7032 12.8399 46.2932 13.1924 45.9478C13.545 45.5953 13.9587 45.3219 14.4335 45.1276C14.9084 44.9334 15.4228 44.8362 15.9768 44.8362C16.3365 44.8362 16.689 44.8866 17.0344 44.9873C17.3869 45.0809 17.7071 45.2212 17.9948 45.4082C18.2898 45.5953 18.5416 45.8183 18.7503 46.0773L17.7358 47.1997C17.5632 47.027 17.3833 46.8795 17.1962 46.7572C17.0164 46.6277 16.8221 46.5306 16.6135 46.4658C16.412 46.3939 16.1962 46.3579 15.966 46.3579C15.6566 46.3579 15.3652 46.4155 15.0918 46.5306C14.8256 46.6457 14.5918 46.8076 14.3903 47.0162C14.1889 47.2177 14.027 47.4659 13.9047 47.7609C13.7896 48.0486 13.732 48.3688 13.732 48.7213C13.732 49.0811 13.7896 49.4084 13.9047 49.7034C14.0198 49.9912 14.1817 50.2394 14.3903 50.448C14.599 50.6495 14.8472 50.8078 15.135 50.9229C15.43 51.0308 15.7537 51.0848 16.1063 51.0848C16.3365 51.0848 16.5595 51.0524 16.7754 50.9876C16.9912 50.9229 17.189 50.833 17.3689 50.7178C17.556 50.6027 17.7214 50.4696 17.8653 50.3185L18.6531 51.5812C18.4805 51.7754 18.2467 51.9517 17.9517 52.11C17.6639 52.2683 17.3401 52.3942 16.9804 52.4877C16.6207 52.574 16.2573 52.6172 15.8904 52.6172Z" fill="#15345E"/>
<path d="M68.7884 62.0003C68.2951 62.0003 67.8403 61.917 67.4239 61.7505C67.0139 61.5775 66.6552 61.3373 66.3477 61.0298C66.0466 60.7159 65.8128 60.3475 65.6462 59.9247C65.4796 59.4955 65.3964 59.0279 65.3964 58.5218C65.3964 58.0285 65.4828 57.5737 65.6558 57.1573C65.8288 56.7345 66.0722 56.3693 66.3861 56.0618C66.7 55.7479 67.0684 55.5045 67.4912 55.3315C67.914 55.1586 68.372 55.0721 68.8653 55.0721C69.1856 55.0721 69.4995 55.1169 69.807 55.2066C70.1209 55.2899 70.4059 55.4148 70.6622 55.5814C70.9248 55.7479 71.1491 55.9465 71.3348 56.1771L70.4316 57.1765C70.2778 57.0227 70.1177 56.8914 69.9511 56.7825C69.791 56.6672 69.618 56.5807 69.4322 56.5231C69.2528 56.459 69.0607 56.427 68.8557 56.427C68.5802 56.427 68.3208 56.4782 68.0773 56.5807C67.8403 56.6832 67.6321 56.8274 67.4527 57.0131C67.2734 57.1925 67.1292 57.4135 67.0203 57.6762C66.9178 57.9324 66.8666 58.2175 66.8666 58.5314C66.8666 58.8517 66.9178 59.1432 67.0203 59.4058C67.1228 59.6621 67.2669 59.8831 67.4527 60.0689C67.6385 60.2482 67.8595 60.3892 68.1158 60.4917C68.3784 60.5877 68.6667 60.6358 68.9806 60.6358C69.1856 60.6358 69.3842 60.607 69.5764 60.5493C69.7685 60.4917 69.9447 60.4116 70.1049 60.3091C70.2714 60.2066 70.4188 60.0881 70.5469 59.9535L71.2483 61.0778C71.0946 61.2508 70.8864 61.4077 70.6238 61.5487C70.3675 61.6896 70.0792 61.8017 69.7589 61.885C69.4386 61.9619 69.1151 62.0003 68.7884 62.0003Z" fill="#15345E"/>
<path d="M59.1664 61.904V55.1776H62.0876C62.536 55.1776 62.914 55.2449 63.2215 55.3794C63.5354 55.5075 63.7724 55.6965 63.9325 55.9463C64.0927 56.1962 64.1728 56.4941 64.1728 56.84C64.1728 57.2244 64.0767 57.5447 63.8845 57.8009C63.6923 58.0572 63.4168 58.2333 63.0581 58.3294L63.0485 58.1372C63.3432 58.2077 63.6026 58.323 63.8268 58.4832C64.051 58.6433 64.224 58.8419 64.3457 59.0789C64.4674 59.316 64.5283 59.585 64.5283 59.8861C64.5283 60.2192 64.4738 60.5139 64.3649 60.7702C64.256 61.02 64.0959 61.2282 63.8845 61.3947C63.6731 61.5613 63.4232 61.6894 63.135 61.7791C62.8531 61.8624 62.536 61.904 62.1837 61.904H59.1664ZM60.5501 60.6548H62.126C62.331 60.6548 62.504 60.626 62.6449 60.5684C62.7922 60.5043 62.9044 60.4082 62.9812 60.2801C63.0581 60.152 63.0965 60.0014 63.0965 59.8285C63.0965 59.6619 63.0549 59.521 62.9716 59.4056C62.8883 59.2903 62.7698 59.2039 62.6161 59.1462C62.4687 59.0821 62.2894 59.0501 62.078 59.0501H60.5501V60.6548ZM60.5501 57.9066H61.9146C62.0876 57.9066 62.2381 57.8746 62.3662 57.8105C62.4944 57.7465 62.5905 57.66 62.6545 57.5511C62.725 57.4422 62.7602 57.3141 62.7602 57.1667C62.7602 56.9297 62.6833 56.7471 62.5296 56.619C62.3758 56.4909 62.1452 56.4268 61.8377 56.4268H60.5501V57.9066Z" fill="#15345E"/>
<path d="M51.8141 61.904V56.8207H53.1305L53.1786 58.4543L52.948 58.118C53.0248 57.8553 53.1498 57.6183 53.3227 57.4069C53.4957 57.1891 53.6975 57.0193 53.9281 56.8976C54.1651 56.7759 54.4118 56.715 54.668 56.715C54.7769 56.715 54.8826 56.7246 54.9851 56.7439C55.0876 56.7631 55.1741 56.7855 55.2446 56.8111L54.8794 58.3102C54.8025 58.2717 54.7097 58.2397 54.6007 58.2141C54.4918 58.182 54.3797 58.166 54.2644 58.166C54.1107 58.166 53.9665 58.1948 53.832 58.2525C53.7039 58.3037 53.5918 58.3806 53.4957 58.4831C53.3996 58.5792 53.3227 58.6945 53.2651 58.829C53.2138 58.9636 53.1882 59.1109 53.1882 59.2711V61.904H51.8141Z" fill="#15345E"/>
<path d="M48.1065 62.0001C47.5877 62.0001 47.1232 61.888 46.7132 61.6638C46.3096 61.4331 45.9893 61.1192 45.7523 60.7221C45.5217 60.3249 45.4064 59.87 45.4064 59.3575C45.4064 58.8451 45.5217 58.3934 45.7523 58.0027C45.9893 57.6055 46.3096 57.2916 46.7132 57.061C47.1232 56.8303 47.5877 56.715 48.1065 56.715C48.619 56.715 49.0771 56.8303 49.4807 57.061C49.8907 57.2916 50.211 57.6055 50.4416 58.0027C50.6722 58.3934 50.7875 58.8451 50.7875 59.3575C50.7875 59.87 50.6722 60.3249 50.4416 60.7221C50.211 61.1192 49.8907 61.4331 49.4807 61.6638C49.0771 61.888 48.619 62.0001 48.1065 62.0001ZM48.1065 60.8085C48.3564 60.8085 48.5806 60.7477 48.7792 60.626C48.9778 60.4978 49.1315 60.3249 49.2404 60.1071C49.3557 59.8829 49.4134 59.633 49.4134 59.3575C49.4134 59.0757 49.3557 58.8258 49.2404 58.608C49.1315 58.3838 48.9778 58.2109 48.7792 58.0891C48.5806 57.961 48.3564 57.897 48.1065 57.897C47.8503 57.897 47.6229 57.961 47.4243 58.0891C47.2257 58.2173 47.0688 58.3902 46.9534 58.608C46.8381 58.8258 46.7837 59.0757 46.7901 59.3575C46.7837 59.633 46.8381 59.8829 46.9534 60.1071C47.0688 60.3249 47.2257 60.4978 47.4243 60.626C47.6229 60.7477 47.8503 60.8085 48.1065 60.8085Z" fill="#15345E"/>
<path d="M40.1825 61.904V55.1776H41.6239V61.904H40.1825ZM40.8455 59.2327V57.9931H44.324V59.2327H40.8455ZM40.8455 56.4749V55.1776H44.7276V56.4749H40.8455Z" fill="#15345E"/>
<path fill-rule="evenodd" clip-rule="evenodd" d="M29.2609 24.6037C25.0793 24.2274 20.052 25.2071 13.8372 28.99C13.567 29.1251 11.9457 29.9358 11 30.3411C11.4053 29.8007 13.2543 28.518 13.567 28.3145C19.9476 24.1637 24.8367 22.8491 29.382 23.2581C33.6904 23.6458 37.4139 25.4335 41.066 27.1869C41.2348 27.2679 41.4036 27.3489 41.5722 27.4297C45.4186 29.2726 49.239 31.0204 53.8079 31.2698C58.3565 31.5181 64.0961 30.0709 70.8513 26.1528C71.1267 25.9931 71.7971 25.6124 72.7428 25.072C72.7428 25.2071 71.8185 25.9989 70.8513 26.6933C63.6908 31.8338 58.622 32.8856 53.7343 32.6188C48.867 32.3531 44.8261 30.4868 40.9884 28.6481C40.8414 28.5777 40.6947 28.5073 40.5483 28.4371C36.842 26.6589 33.3198 24.969 29.2609 24.6037Z" fill="#327CE0"/>
<path fill-rule="evenodd" clip-rule="evenodd" d="M29.2609 30.831C25.0793 30.4547 20.052 31.4344 13.8372 35.2173C13.567 35.3524 11.9457 36.1631 11 36.5684C11.4053 36.028 13.2543 34.7453 13.567 34.5418C19.9476 30.391 24.8367 29.0764 29.382 29.4854C33.6904 29.8731 37.4139 31.6608 41.066 33.4141C41.2348 33.4952 41.4036 33.5762 41.5722 33.657C45.4186 35.4999 49.239 37.2477 53.8079 37.4971C58.3565 37.7454 64.0961 36.2982 70.8513 32.3801C71.1267 32.2204 71.7971 31.8397 72.7428 31.2993C72.7428 31.4344 71.8185 32.2262 70.8513 32.9206C63.6908 38.0611 58.622 39.1129 53.7343 38.8461C48.867 38.5804 44.8261 36.7141 40.9884 34.8754C40.8414 34.805 40.6947 34.7346 40.5483 34.6644C36.842 32.8862 33.3198 31.1963 29.2609 30.831Z" fill="#327CE0"/>
<path fill-rule="evenodd" clip-rule="evenodd" d="M29.2609 37.0582C25.0793 36.682 20.052 37.6616 13.8372 41.4446C13.567 41.5797 11.9457 42.3903 11 42.7956C11.4053 42.2552 13.2543 40.9725 13.567 40.769C19.9476 36.6182 24.8367 35.3036 29.382 35.7126C33.6904 36.1003 37.4139 37.888 41.066 39.6414C41.2348 39.7225 41.4036 39.8035 41.5722 39.8843C45.4186 41.7272 49.239 43.4749 53.8079 43.7243C58.3565 43.9726 64.0961 42.5254 70.8513 38.6074C71.1267 38.4476 71.7971 38.067 72.7428 37.5265C72.7428 37.6616 71.8185 38.4535 70.8513 39.1478C63.6908 44.2883 58.622 45.3401 53.7343 45.0733C48.867 44.8077 44.8261 42.9414 40.9884 41.1027C40.8414 41.0322 40.6947 40.9618 40.5483 40.8916C36.842 39.1134 33.3198 37.4235 29.2609 37.0582Z" fill="#327CE0"/>
</svg>
