<svg width="0" height="0" class="hidden">
  <symbol fill="none" xmlns="http://www.w3.org/2000/svg" viewBox="0 0 64 65" id="Community-Centric">
    <g id="Community-Centric">
      <path id="Vector" d="M50.6667 21.5979C51.4223 21.5979 52.0556 21.3423 52.5667 20.8312C53.0778 20.3201 53.3334 19.6868 53.3334 18.9312C53.3334 18.1757 53.0778 17.5423 52.5667 17.0312C52.0556 16.5201 51.4223 16.2646 50.6667 16.2646C49.9111 16.2646 49.2778 16.5201 48.7667 17.0312C48.2556 17.5423 48 18.1757 48 18.9312C48 19.6868 48.2556 20.3201 48.7667 20.8312C49.2778 21.3423 49.9111 21.5979 50.6667 21.5979ZM50.6667 26.9312C48.4 26.9312 46.5 26.1646 44.9667 24.6312C43.4334 23.0979 42.6667 21.1979 42.6667 18.9312C42.6667 16.709 43.4334 14.8201 44.9667 13.2646C46.5 11.709 48.4 10.9312 50.6667 10.9312C52.8889 10.9312 54.7778 11.709 56.3334 13.2646C57.8889 14.8201 58.6667 16.709 58.6667 18.9312C58.6667 21.1979 57.8889 23.0979 56.3334 24.6312C54.7778 26.1646 52.8889 26.9312 50.6667 26.9312ZM32 18.9312C33.1112 18.9312 34.0556 18.5535 34.8334 17.7979C35.6112 17.0423 36 16.0868 36 14.9312C36 13.8201 35.6112 12.8757 34.8334 12.0979C34.0556 11.3201 33.1112 10.9312 32 10.9312C30.8445 10.9312 29.8889 11.3201 29.1334 12.0979C28.3778 12.8757 28 13.8201 28 14.9312C28 16.0868 28.3778 17.0423 29.1334 17.7979C29.8889 18.5535 30.8445 18.9312 32 18.9312ZM32 24.2646C29.3778 24.2646 27.1667 23.3646 25.3667 21.5646C23.5667 19.7646 22.6667 17.5535 22.6667 14.9312C22.6667 12.3535 23.5667 10.1535 25.3667 8.33123C27.1667 6.50901 29.3778 5.5979 32 5.5979C34.5778 5.5979 36.7778 6.50901 38.6 8.33123C40.4223 10.1535 41.3334 12.3535 41.3334 14.9312C41.3334 17.5535 40.4223 19.7646 38.6 21.5646C36.7778 23.3646 34.5778 24.2646 32 24.2646ZM21.3334 35.9312C21.3334 37.2646 22.0445 38.8201 23.4667 40.5979C24.8889 42.3757 27.7334 45.1979 32 49.0646C36.1778 45.2868 39 42.509 40.4667 40.7312C41.9334 38.9535 42.6667 37.3535 42.6667 35.9312C42.6667 34.909 42.3334 34.0423 41.6667 33.3312C41 32.6201 40.1778 32.2646 39.2 32.2646C38.5778 32.2646 37.9889 32.3979 37.4334 32.6646C36.8778 32.9312 36.4223 33.309 36.0667 33.7979L32.8667 37.5979H31.0667L27.8667 33.7979C27.5112 33.309 27.0556 32.9312 26.5 32.6646C25.9445 32.3979 25.3778 32.2646 24.8 32.2646C23.7778 32.2646 22.9445 32.6201 22.3 33.3312C21.6556 34.0423 21.3334 34.909 21.3334 35.9312ZM16 35.9312C16 33.5757 16.8 31.4868 18.4 29.6646C20 27.8423 22.1334 26.9312 24.8 26.9312C26.1778 26.9312 27.5 27.2423 28.7667 27.8646C30.0334 28.4868 31.1112 29.3312 32 30.3979C32.8889 29.3312 33.9556 28.4868 35.2 27.8646C36.4445 27.2423 37.7778 26.9312 39.2 26.9312C41.8667 26.9312 44 27.8535 45.6 29.6979C47.2 31.5423 48 33.6201 48 35.9312C48 38.2868 47.1445 40.609 45.4334 42.8979C43.7223 45.1868 40.2223 48.7535 34.9334 53.5979L32 56.2646L29.0667 53.5979C23.6889 48.709 20.1667 45.1312 18.5 42.8646C16.8334 40.5979 16 38.2868 16 35.9312ZM13.3334 21.5979C14.0889 21.5979 14.7223 21.3423 15.2334 20.8312C15.7445 20.3201 16 19.6868 16 18.9312C16 18.1757 15.7445 17.5423 15.2334 17.0312C14.7223 16.5201 14.0889 16.2646 13.3334 16.2646C12.5778 16.2646 11.9445 16.5201 11.4334 17.0312C10.9223 17.5423 10.6667 18.1757 10.6667 18.9312C10.6667 19.6868 10.9223 20.3201 11.4334 20.8312C11.9445 21.3423 12.5778 21.5979 13.3334 21.5979ZM32.2 58.9312V53.5979H53.3334V34.9312H45.4667V29.5979H53.3334C54.8 29.5979 56.0556 30.1201 57.1 31.1646C58.1445 32.209 58.6667 33.4646 58.6667 34.9312V58.9312H32.2ZM10.6667 53.5979H32.2V58.9312H5.33337V34.9312C5.33337 33.4646 5.84449 32.209 6.86671 31.1646C7.88893 30.1201 9.1556 29.5979 10.6667 29.5979H18.5334V34.9312H10.6667V53.5979ZM13.3334 26.9312C11.0667 26.9312 9.16671 26.1646 7.63337 24.6312C6.10004 23.0979 5.33337 21.1979 5.33337 18.9312C5.33337 16.709 6.10004 14.8201 7.63337 13.2646C9.16671 11.709 11.0667 10.9312 13.3334 10.9312C15.5556 10.9312 17.4445 11.709 19 13.2646C20.5556 14.8201 21.3334 16.709 21.3334 18.9312C21.3334 21.1979 20.5556 23.0979 19 24.6312C17.4445 26.1646 15.5556 26.9312 13.3334 26.9312Z" fill="#707070"></path>
    </g>
  </symbol>
  <symbol fill="none" xmlns="http://www.w3.org/2000/svg" viewBox="0 0 64 65" id="Collaboration">
    <g id="Collaboration">
      <path id="Vector" d="M31.6667 53.5979C31.8445 53.5979 32.0222 53.5535 32.2 53.4646C32.3778 53.3757 32.5111 53.2868 32.6 53.1979L54.4667 31.3312C55 30.7979 55.3889 30.1979 55.6333 29.5312C55.8778 28.8646 56 28.1979 56 27.5312C56 26.8201 55.8778 26.1423 55.6333 25.4979C55.3889 24.8535 55 24.2868 54.4667 23.7979L43.1333 12.4646C42.6445 11.9312 42.0778 11.5423 41.4333 11.2979C40.7889 11.0535 40.1111 10.9312 39.4 10.9312C38.7333 10.9312 38.0667 11.0535 37.4 11.2979C36.7333 11.5423 36.1333 11.9312 35.6 12.4646L34.8667 13.1979L39.8 18.1979C40.4667 18.8201 40.9556 19.5312 41.2667 20.3312C41.5778 21.1312 41.7333 21.9757 41.7333 22.8646C41.7333 24.7312 41.1 26.2979 39.8333 27.5646C38.5667 28.8312 37 29.4646 35.1333 29.4646C34.2445 29.4646 33.3889 29.309 32.5667 28.9979C31.7445 28.6868 31.0222 28.2201 30.4 27.5979L25.4 22.6646L13.7333 34.3312C13.6 34.4646 13.5 34.609 13.4333 34.7646C13.3667 34.9201 13.3333 35.0868 13.3333 35.2646C13.3333 35.6201 13.4667 35.9423 13.7333 36.2312C14 36.5201 14.3111 36.6646 14.6667 36.6646C14.8445 36.6646 15.0222 36.6201 15.2 36.5312C15.3778 36.4423 15.5111 36.3535 15.6 36.2646L24.6667 27.1979L28.4 30.9312L19.4 39.9979C19.2667 40.1312 19.1667 40.2757 19.1 40.4312C19.0333 40.5868 19 40.7535 19 40.9312C19 41.2868 19.1333 41.5979 19.4 41.8646C19.6667 42.1312 19.9778 42.2646 20.3333 42.2646C20.5111 42.2646 20.6889 42.2201 20.8667 42.1312C21.0445 42.0423 21.1778 41.9535 21.2667 41.8646L30.3333 32.8646L34.0667 36.5979L25.0667 45.6646C24.9333 45.7535 24.8333 45.8868 24.7667 46.0646C24.7 46.2423 24.6667 46.4201 24.6667 46.5979C24.6667 46.9535 24.8 47.2646 25.0667 47.5312C25.3333 47.7979 25.6445 47.9312 26 47.9312C26.1778 47.9312 26.3445 47.8979 26.5 47.8312C26.6556 47.7646 26.8 47.6646 26.9333 47.5312L36 38.5312L39.7333 42.2646L30.6667 51.3312C30.5333 51.4646 30.4333 51.609 30.3667 51.7646C30.3 51.9201 30.2667 52.0868 30.2667 52.2646C30.2667 52.6201 30.4111 52.9312 30.7 53.1979C30.9889 53.4646 31.3111 53.5979 31.6667 53.5979ZM31.6 58.9312C29.9556 58.9312 28.5 58.3868 27.2333 57.2979C25.9667 56.209 25.2222 54.8423 25 53.1979C23.4889 52.9757 22.2222 52.3535 21.2 51.3312C20.1778 50.309 19.5556 49.0423 19.3333 47.5312C17.8222 47.309 16.5667 46.6757 15.5667 45.6312C14.5667 44.5868 13.9556 43.3312 13.7333 41.8646C12.0445 41.6423 10.6667 40.909 9.60001 39.6646C8.53335 38.4201 8.00001 36.9535 8.00001 35.2646C8.00001 34.3757 8.16668 33.5201 8.50001 32.6979C8.83335 31.8757 9.31113 31.1535 9.93335 30.5312L25.4 15.1312L34.1333 23.8646C34.2222 23.9979 34.3556 24.0979 34.5333 24.1646C34.7111 24.2312 34.8889 24.2646 35.0667 24.2646C35.4667 24.2646 35.8 24.1423 36.0667 23.8979C36.3333 23.6535 36.4667 23.3312 36.4667 22.9312C36.4667 22.7535 36.4333 22.5757 36.3667 22.3979C36.3 22.2201 36.2 22.0868 36.0667 21.9979L26.5333 12.4646C26.0445 11.9312 25.4778 11.5423 24.8333 11.2979C24.1889 11.0535 23.5111 10.9312 22.8 10.9312C22.1333 10.9312 21.4667 11.0535 20.8 11.2979C20.1333 11.5423 19.5333 11.9312 19 12.4646L9.60001 21.9312C9.20001 22.3312 8.86668 22.7979 8.60001 23.3312C8.33335 23.8646 8.15557 24.3979 8.06668 24.9312C7.97779 25.4646 7.97779 26.009 8.06668 26.5646C8.15557 27.1201 8.33335 27.6423 8.60001 28.1312L4.73335 31.9979C3.97779 30.9757 3.42224 29.8535 3.06668 28.6312C2.71113 27.409 2.57779 26.1757 2.66668 24.9312C2.75557 23.6868 3.06668 22.4757 3.60001 21.2979C4.13335 20.1201 4.86668 19.0646 5.80001 18.1312L15.2 8.73123C16.2667 7.70901 17.4556 6.93123 18.7667 6.3979C20.0778 5.86457 21.4222 5.5979 22.8 5.5979C24.1778 5.5979 25.5222 5.86457 26.8333 6.3979C28.1445 6.93123 29.3111 7.70901 30.3333 8.73123L31.0667 9.46457L31.8 8.73123C32.8667 7.70901 34.0556 6.93123 35.3667 6.3979C36.6778 5.86457 38.0222 5.5979 39.4 5.5979C40.7778 5.5979 42.1222 5.86457 43.4333 6.3979C44.7445 6.93123 45.9111 7.70901 46.9333 8.73123L58.2 19.9979C59.2222 21.0201 60 22.1979 60.5333 23.5312C61.0667 24.8646 61.3333 26.2201 61.3333 27.5979C61.3333 28.9757 61.0667 30.3201 60.5333 31.6312C60 32.9423 59.2222 34.109 58.2 35.1312L36.3333 56.9312C35.7111 57.5535 34.9889 58.0423 34.1667 58.3979C33.3445 58.7535 32.4889 58.9312 31.6 58.9312Z" fill="#707070"></path>
    </g>
  </symbol>
  <symbol fill="none" xmlns="http://www.w3.org/2000/svg" viewBox="0 0 64 65" id="Innovation">
  <g id="Innovation">
 <path id="Vector" d="M32.0001 59.1666C30.8445 59.1666 29.8001 58.8888 28.8667 58.3332C27.9334 57.7777 27.2001 57.0332 26.6667 56.0999C25.2001 56.0999 23.9445 55.5777 22.9001 54.5332C21.8556 53.4888 21.3334 52.2332 21.3334 50.7666V41.2999C18.7112 39.5666 16.6112 37.2777 15.0334 34.4333C13.4556 31.5888 12.6667 28.4999 12.6667 25.1666C12.6667 19.7888 14.5445 15.2221 18.3001 11.4666C22.0556 7.71103 26.6223 5.83325 32.0001 5.83325C37.3779 5.83325 41.9445 7.71103 45.7001 11.4666C49.4556 15.2221 51.3334 19.7888 51.3334 25.1666C51.3334 28.5888 50.5445 31.6999 48.9668 34.4999C47.389 37.2999 45.289 39.5666 42.6667 41.2999V50.7666C42.6667 52.2332 42.1445 53.4888 41.1001 54.5332C40.0556 55.5777 38.8001 56.0999 37.3334 56.0999C36.8001 57.0332 36.0667 57.7777 35.1334 58.3332C34.2001 58.8888 33.1556 59.1666 32.0001 59.1666ZM26.6667 50.7666H37.3334V48.3666H26.6667V50.7666ZM26.6667 45.6999H37.3334V43.1666H26.6667V45.6999ZM26.1334 37.8333H30.0001V30.6333L24.1334 24.7666L26.9334 21.9666L32.0001 27.0333L37.0667 21.9666L39.8667 24.7666L34.0001 30.6333V37.8333H37.8667C40.2668 36.6777 42.2223 34.9777 43.7334 32.7332C45.2445 30.4888 46.0001 27.9666 46.0001 25.1666C46.0001 21.2555 44.6445 17.9444 41.9334 15.2333C39.2223 12.5221 35.9112 11.1666 32.0001 11.1666C28.089 11.1666 24.7779 12.5221 22.0667 15.2333C19.3556 17.9444 18.0001 21.2555 18.0001 25.1666C18.0001 27.9666 18.7556 30.4888 20.2667 32.7332C21.7779 34.9777 23.7334 36.6777 26.1334 37.8333Z" fill="#707070"></path>
 </g>
  </symbol>
  <symbol fill="none" xmlns="http://www.w3.org/2000/svg" viewBox="0 0 64 65" id="Empowerment">
    <g id="Empowerment">
      <path id="Vector" d="M25.8 36.7979L28.1333 29.1979L22 24.2646H29.6L32 16.7979L34.4 24.2646H42L35.8 29.1979L38.1333 36.7979L32 32.0646L25.8 36.7979ZM16 61.5979V40.9979C14.3111 39.1312 13 36.9979 12.0666 34.5979C11.1333 32.1979 10.6666 29.6423 10.6666 26.9312C10.6666 20.9757 12.7333 15.9312 16.8666 11.7979C21 7.66457 26.0444 5.5979 32 5.5979C37.9555 5.5979 43 7.66457 47.1333 11.7979C51.2666 15.9312 53.3333 20.9757 53.3333 26.9312C53.3333 29.6423 52.8666 32.1979 51.9333 34.5979C51 36.9979 49.6889 39.1312 48 40.9979V61.5979L32 56.2646L16 61.5979ZM32 42.9312C36.4444 42.9312 40.2222 41.3757 43.3333 38.2646C46.4444 35.1535 48 31.3757 48 26.9312C48 22.4868 46.4444 18.709 43.3333 15.5979C40.2222 12.4868 36.4444 10.9312 32 10.9312C27.5555 10.9312 23.7777 12.4868 20.6666 15.5979C17.5555 18.709 16 22.4868 16 26.9312C16 31.3757 17.5555 35.1535 20.6666 38.2646C23.7777 41.3757 27.5555 42.9312 32 42.9312ZM21.3333 53.6646L32 50.9312L42.6666 53.6646V45.3979C41.1111 46.2868 39.4333 46.9868 37.6333 47.4979C35.8333 48.009 33.9555 48.2646 32 48.2646C30.0444 48.2646 28.1666 48.009 26.3666 47.4979C24.5666 46.9868 22.8888 46.2868 21.3333 45.3979V53.6646Z" fill="#707070"></path>
    </g>
  </symbol>
  <symbol fill="none" xmlns="http://www.w3.org/2000/svg" viewBox="0 0 64 65" id="Inclusivity">
    <g id="Inclusivity" clip-path="url(#clip0_729_5641)">
      <path id="Vector" d="M10.6667 36.3313L17.4 29.598L10.6667 22.8646L3.93333 29.598L10.6667 36.3313ZM46.6667 34.9313L53.3333 24.2646L60 34.9313H46.6667ZM32 32.2646C29.7778 32.2646 27.8889 31.4869 26.3333 29.9313C24.7778 28.3758 24 26.4869 24 24.2646C24 21.998 24.7778 20.098 26.3333 18.5646C27.8889 17.0313 29.7778 16.2646 32 16.2646C34.2667 16.2646 36.1667 17.0313 37.7 18.5646C39.2333 20.098 40 21.998 40 24.2646C40 26.4869 39.2333 28.3758 37.7 29.9313C36.1667 31.4869 34.2667 32.2646 32 32.2646ZM32 21.598C31.2444 21.598 30.6111 21.8535 30.1 22.3646C29.5889 22.8758 29.3333 23.5091 29.3333 24.2646C29.3333 25.0202 29.5889 25.6535 30.1 26.1646C30.6111 26.6758 31.2444 26.9313 32 26.9313C32.7556 26.9313 33.3889 26.6758 33.9 26.1646C34.4111 25.6535 34.6667 25.0202 34.6667 24.2646C34.6667 23.5091 34.4111 22.8758 33.9 22.3646C33.3889 21.8535 32.7556 21.598 32 21.598ZM0 48.2646V44.0646C0 42.1091 0.988889 40.5424 2.96667 39.3646C4.94444 38.1869 7.51111 37.598 10.6667 37.598C11.2444 37.598 11.8 37.6091 12.3333 37.6313C12.8667 37.6535 13.3778 37.7091 13.8667 37.798C13.2444 38.6869 12.7778 39.6424 12.4667 40.6646C12.1556 41.6869 12 42.7758 12 43.9313V48.2646H0ZM16 48.2646V43.9313C16 41.0424 17.4778 38.7091 20.4333 36.9313C23.3889 35.1535 27.2444 34.2646 32 34.2646C36.8 34.2646 40.6667 35.1535 43.6 36.9313C46.5333 38.7091 48 41.0424 48 43.9313V48.2646H16ZM53.3333 37.598C56.5333 37.598 59.1111 38.1869 61.0667 39.3646C63.0222 40.5424 64 42.1091 64 44.0646V48.2646H52V43.9313C52 42.7758 51.8556 41.6869 51.5667 40.6646C51.2778 39.6424 50.8444 38.6869 50.2667 37.798C50.7556 37.7091 51.2556 37.6535 51.7667 37.6313C52.2778 37.6091 52.8 37.598 53.3333 37.598ZM32 39.598C29.4667 39.598 27.2 39.9313 25.2 40.598C23.2 41.2647 22.0222 42.0424 21.6667 42.9313H42.4C42 42.0424 40.8111 41.2647 38.8333 40.598C36.8556 39.9313 34.5778 39.598 32 39.598Z" fill="#707070"></path>
    </g>
    <defs>
      <clipPath id="clip0_729_5641">
        <rect width="64" height="64" fill="white" transform="translate(0 0.264648)"></rect>
      </clipPath>
    </defs>
  </symbol>
</svg>
