<svg width="0" height="0" class="hidden">
  <symbol fill="none" xmlns="http://www.w3.org/2000/svg" viewBox="0 0 24 24" id="Social Icons (1)">
    <g id="github" clip-path="url(#clip0_1183_2809)">
      <path id="Icon" fill-rule="evenodd" clip-rule="evenodd" d="M12 0C5.3724 0 0 5.3808 0 12.0204C0 17.3304 3.438 21.8364 8.2068 23.4252C8.8068 23.5356 9.0252 23.1648 9.0252 22.8456C9.0252 22.5612 9.0156 21.804 9.0096 20.802C5.6712 21.528 4.9668 19.1904 4.9668 19.1904C4.422 17.8008 3.6348 17.4312 3.6348 17.4312C2.5452 16.6872 3.7176 16.7016 3.7176 16.7016C4.9212 16.7856 5.5548 17.94 5.5548 17.94C6.6252 19.776 8.364 19.2456 9.0468 18.9384C9.1572 18.162 9.4668 17.6328 9.81 17.3328C7.146 17.0292 4.344 15.9972 4.344 11.3916C4.344 10.08 4.812 9.006 5.5788 8.166C5.4552 7.8624 5.0436 6.6396 5.6964 4.986C5.6964 4.986 6.7044 4.662 8.9964 6.2172C9.97532 5.95022 10.9853 5.81423 12 5.8128C13.02 5.8176 14.046 5.9508 15.0048 6.2172C17.2956 4.662 18.3012 4.9848 18.3012 4.9848C18.9564 6.6396 18.5436 7.8624 18.4212 8.166C19.1892 9.006 19.6548 10.08 19.6548 11.3916C19.6548 16.0092 16.848 17.0256 14.1756 17.3232C14.6064 17.694 14.9892 18.4272 14.9892 19.5492C14.9892 21.1548 14.9748 22.452 14.9748 22.8456C14.9748 23.1672 15.1908 23.5416 15.8004 23.424C18.19 22.6225 20.2672 21.0904 21.7386 19.0441C23.2099 16.9977 24.001 14.5408 24 12.0204C24 5.3808 18.6264 0 12 0Z" fill="black"></path>
    </g>
    <defs>
      <clipPath id="clip0_1183_2809">
        <rect width="24" height="24" fill="white"></rect>
      </clipPath>
    </defs>
  </symbol>
  <symbol fill="none" xmlns="http://www.w3.org/2000/svg" viewBox="0 0 24 24" id="Social Icons">
    <g id="linkedin" clip-path="url(#clip0_1183_2807)">
      <path id="Vector" d="M22.2283 0H1.77167C1.30179 0 0.851161 0.186657 0.518909 0.518909C0.186657 0.851161 0 1.30179 0 1.77167V22.2283C0 22.6982 0.186657 23.1488 0.518909 23.4811C0.851161 23.8133 1.30179 24 1.77167 24H22.2283C22.6982 24 23.1488 23.8133 23.4811 23.4811C23.8133 23.1488 24 22.6982 24 22.2283V1.77167C24 1.30179 23.8133 0.851161 23.4811 0.518909C23.1488 0.186657 22.6982 0 22.2283 0ZM7.15333 20.445H3.545V8.98333H7.15333V20.445ZM5.34667 7.395C4.93736 7.3927 4.53792 7.2692 4.19873 7.04009C3.85955 6.81098 3.59584 6.48653 3.44088 6.10769C3.28591 5.72885 3.24665 5.31259 3.32803 4.91145C3.40941 4.51032 3.6078 4.14228 3.89816 3.85378C4.18851 3.56529 4.55782 3.36927 4.95947 3.29046C5.36112 3.21165 5.77711 3.25359 6.15495 3.41099C6.53279 3.56838 6.85554 3.83417 7.08247 4.17481C7.30939 4.51546 7.43032 4.91569 7.43 5.325C7.43386 5.59903 7.38251 5.87104 7.27901 6.1248C7.17551 6.37857 7.02198 6.6089 6.82757 6.80207C6.63316 6.99523 6.40185 7.14728 6.14742 7.24915C5.893 7.35102 5.62067 7.40062 5.34667 7.395ZM20.4533 20.455H16.8467V14.1933C16.8467 12.3467 16.0617 11.7767 15.0483 11.7767C13.9783 11.7767 12.9283 12.5833 12.9283 14.24V20.455H9.32V8.99167H12.79V10.58H12.8367C13.185 9.875 14.405 8.67 16.2667 8.67C18.28 8.67 20.455 9.865 20.455 13.365L20.4533 20.455Z" fill="#0A66C2"></path>
    </g>
    <defs>
      <clipPath id="clip0_1183_2807">
        <rect width="24" height="24" fill="white"></rect>
      </clipPath>
    </defs>
  </symbol>
</svg>
